<svg width="167" height="54" viewBox="0 0 167 54" fill="none" xmlns="http://www.w3.org/2000/svg">
<path d="M20.0079 40.88C16.5245 40.88 13.5545 40.2933 11.0979 39.12C8.67787 37.9467 6.7162 36.3883 5.21287 34.445C3.70954 32.465 2.60954 30.2833 1.91287 27.9C1.2162 25.5167 0.867871 23.1333 0.867871 20.75C0.867871 18.44 1.25287 16.1117 2.02287 13.765C2.82954 11.3817 4.0212 9.2 5.59787 7.22C7.2112 5.24 9.22787 3.645 11.6479 2.435C14.0679 1.225 16.9095 0.619999 20.1729 0.619999C23.5095 0.619999 26.3879 1.225 28.8079 2.435C31.2279 3.645 33.2079 5.25833 34.7479 7.275C36.2879 9.255 37.4245 11.4183 38.1579 13.765C38.9279 16.1117 39.3129 18.44 39.3129 20.75C39.3129 23.0233 38.9095 25.3333 38.1029 27.68C37.3329 30.0267 36.1412 32.2083 34.5279 34.225C32.9512 36.205 30.9529 37.8183 28.5329 39.065C26.1129 40.275 23.2712 40.88 20.0079 40.88ZM20.6129 36.865C22.5195 36.865 24.1145 36.4067 25.3979 35.49C26.6812 34.5367 27.7079 33.3083 28.4779 31.805C29.2479 30.3017 29.7979 28.67 30.1279 26.91C30.4579 25.1133 30.6229 23.3717 30.6229 21.685C30.6229 18.3117 30.2195 15.3417 29.4129 12.775C28.6062 10.2083 27.3779 8.19167 25.7279 6.725C24.1145 5.25833 22.0245 4.56167 19.4579 4.635C17.5879 4.67167 16.0112 5.185 14.7279 6.175C13.4445 7.12833 12.4179 8.375 11.6479 9.915C10.8779 11.4183 10.3279 13.0683 9.99787 14.865C9.66787 16.6617 9.50287 18.4033 9.50287 20.09C9.50287 21.8133 9.6862 23.6467 10.0529 25.59C10.4562 27.5333 11.0795 29.3667 11.9229 31.09C12.7662 32.8133 13.9029 34.2067 15.3329 35.27C16.7629 36.3333 18.5229 36.865 20.6129 36.865Z" fill="#FCA311"/>
<path d="M43.3254 38.56C44.3174 38.56 45.0054 38.32 45.3894 37.84C45.7734 37.328 45.9974 36.64 46.0614 35.776C46.1254 34.88 46.1574 33.856 46.1574 32.704V21.76C46.1574 21.248 46.1574 20.736 46.1574 20.224C46.1894 19.712 46.2534 19.184 46.3494 18.64C45.7734 18.672 45.1974 18.704 44.6214 18.736C44.0774 18.736 43.5174 18.752 42.9414 18.784V16.816H44.4294C45.8054 16.816 46.7494 16.688 47.2614 16.432C47.8054 16.144 48.2534 15.84 48.6054 15.52H49.9974C50.0614 16.032 50.1094 16.672 50.1414 17.44C50.1734 18.176 50.2054 19.12 50.2374 20.272C50.7174 19.472 51.3734 18.688 52.2054 17.92C53.0374 17.152 53.9654 16.512 54.9894 16C56.0454 15.488 57.1494 15.232 58.3014 15.232C59.1974 15.232 59.9814 15.472 60.6534 15.952C61.3254 16.432 61.6614 17.2 61.6614 18.256C61.6614 18.672 61.4694 19.168 61.0854 19.744C60.7334 20.32 60.1254 20.592 59.2614 20.56C58.5574 20.528 57.9974 20.256 57.5814 19.744C57.1654 19.2 57.0054 18.576 57.1014 17.872C55.8854 17.808 54.6534 18.272 53.4054 19.264C52.1574 20.256 51.1174 21.536 50.2854 23.104L50.3334 34.912C50.3334 35.552 50.3174 36.128 50.2854 36.64C50.2854 37.12 50.2374 37.632 50.1414 38.176C50.6534 38.144 51.1494 38.128 51.6294 38.128C52.1414 38.096 52.6534 38.064 53.1654 38.032V40H43.3254V38.56ZM64.091 38.56C65.083 38.56 65.771 38.32 66.155 37.84C66.539 37.328 66.763 36.64 66.827 35.776C66.891 34.88 66.923 33.856 66.923 32.704V21.76C66.923 21.248 66.939 20.768 66.971 20.32C67.003 19.84 67.051 19.28 67.115 18.64C66.539 18.672 65.963 18.704 65.387 18.736C64.843 18.768 64.283 18.8 63.707 18.832V16.816C65.115 16.816 66.203 16.752 66.971 16.624C67.739 16.496 68.315 16.336 68.699 16.144C69.115 15.952 69.435 15.744 69.659 15.52H71.051V34.912C71.051 35.552 71.035 36.128 71.003 36.64C71.003 37.12 70.955 37.632 70.859 38.176C71.371 38.144 71.867 38.128 72.347 38.128C72.859 38.096 73.371 38.064 73.883 38.032V40H64.091V38.56ZM68.747 10.768C68.075 10.768 67.483 10.496 66.971 9.952C66.459 9.408 66.203 8.736 66.203 7.936C66.203 7.136 66.459 6.464 66.971 5.92C67.515 5.344 68.123 5.056 68.795 5.056C69.531 5.056 70.139 5.344 70.619 5.92C71.131 6.464 71.387 7.136 71.387 7.936C71.387 8.736 71.115 9.408 70.571 9.952C70.059 10.496 69.451 10.768 68.747 10.768ZM89.159 53.008C86.279 53.008 83.959 52.688 82.199 52.048C80.439 51.408 79.159 50.592 78.359 49.6C77.559 48.608 77.159 47.584 77.159 46.528C77.159 45.536 77.383 44.656 77.831 43.888C78.311 43.152 78.887 42.512 79.559 41.968C80.263 41.424 80.935 41.024 81.575 40.768C80.551 40.416 79.735 39.952 79.127 39.376C78.551 38.768 78.263 37.968 78.263 36.976C78.263 35.856 78.711 34.816 79.607 33.856C80.503 32.864 81.655 32.256 83.063 32.032C81.591 31.328 80.407 30.352 79.511 29.104C78.647 27.856 78.215 26.4 78.215 24.736C78.215 22.816 78.711 21.152 79.703 19.744C80.695 18.304 81.959 17.2 83.495 16.432C85.063 15.632 86.679 15.232 88.343 15.232C90.519 15.232 92.551 15.824 94.439 17.008C94.919 15.664 95.687 14.56 96.743 13.696C97.799 12.8 98.967 12.352 100.247 12.352C101.079 12.352 101.703 12.576 102.119 13.024C102.567 13.44 102.791 14.016 102.791 14.752C102.791 15.104 102.631 15.536 102.311 16.048C102.023 16.528 101.495 16.752 100.727 16.72C100.183 16.72 99.735 16.56 99.383 16.24C99.031 15.92 98.807 15.52 98.711 15.04C97.911 15.168 97.287 15.552 96.839 16.192C96.391 16.8 96.087 17.472 95.927 18.208C96.695 18.912 97.303 19.76 97.751 20.752C98.231 21.744 98.471 22.8 98.471 23.92C98.471 25.712 97.991 27.312 97.031 28.72C96.103 30.128 94.871 31.232 93.335 32.032C91.799 32.8 90.135 33.184 88.343 33.184C87.735 33.184 87.207 33.152 86.759 33.088C86.311 32.992 85.767 32.944 85.127 32.944C83.943 32.944 82.983 33.232 82.247 33.808C81.511 34.384 81.255 35.072 81.479 35.872C81.735 36.64 82.519 37.136 83.831 37.36C85.143 37.552 86.903 37.696 89.111 37.792C91.575 37.888 93.687 38.176 95.447 38.656C97.207 39.136 98.551 39.872 99.479 40.864C100.439 41.888 100.919 43.264 100.919 44.992C100.919 46.272 100.567 47.408 99.863 48.4C99.191 49.424 98.279 50.272 97.127 50.944C96.007 51.616 94.743 52.128 93.335 52.48C91.959 52.832 90.567 53.008 89.159 53.008ZM88.487 31.456C90.279 31.456 91.607 30.832 92.471 29.584C93.367 28.304 93.815 26.736 93.815 24.88C93.815 23.472 93.607 22.16 93.191 20.944C92.775 19.728 92.151 18.752 91.319 18.016C90.519 17.28 89.495 16.912 88.247 16.912C86.519 16.912 85.175 17.568 84.215 18.88C83.287 20.16 82.823 21.76 82.823 23.68C82.823 25.984 83.319 27.856 84.311 29.296C85.303 30.736 86.695 31.456 88.487 31.456ZM89.111 51.136C91.863 51.136 94.007 50.624 95.543 49.6C97.079 48.576 97.847 47.376 97.847 46C97.847 44.816 97.447 43.904 96.647 43.264C95.847 42.656 94.759 42.224 93.383 41.968C92.007 41.744 90.423 41.616 88.631 41.584C87.767 41.552 86.919 41.504 86.087 41.44C85.255 41.408 84.455 41.328 83.687 41.2C81.863 42.416 80.951 44 80.951 45.952C80.951 47.52 81.687 48.768 83.159 49.696C84.663 50.656 86.647 51.136 89.111 51.136ZM105.294 38.56C106.286 38.56 106.974 38.32 107.358 37.84C107.742 37.328 107.966 36.64 108.03 35.776C108.094 34.88 108.126 33.856 108.126 32.704V21.76C108.126 21.248 108.142 20.768 108.174 20.32C108.206 19.84 108.254 19.28 108.318 18.64C107.742 18.672 107.166 18.704 106.59 18.736C106.046 18.768 105.486 18.8 104.91 18.832V16.816C106.318 16.816 107.406 16.752 108.174 16.624C108.942 16.496 109.518 16.336 109.902 16.144C110.318 15.952 110.638 15.744 110.862 15.52H112.254V34.912C112.254 35.552 112.238 36.128 112.206 36.64C112.206 37.12 112.158 37.632 112.062 38.176C112.574 38.144 113.07 38.128 113.55 38.128C114.062 38.096 114.574 38.064 115.086 38.032V40H105.294V38.56ZM109.95 10.768C109.278 10.768 108.686 10.496 108.174 9.952C107.662 9.408 107.406 8.736 107.406 7.936C107.406 7.136 107.662 6.464 108.174 5.92C108.718 5.344 109.326 5.056 109.998 5.056C110.734 5.056 111.342 5.344 111.822 5.92C112.334 6.464 112.59 7.136 112.59 7.936C112.59 8.736 112.318 9.408 111.774 9.952C111.262 10.496 110.654 10.768 109.95 10.768ZM118.794 40V38.56C119.786 38.56 120.474 38.32 120.858 37.84C121.242 37.328 121.466 36.64 121.53 35.776C121.594 34.88 121.626 33.856 121.626 32.704L121.674 21.76C121.674 21.248 121.674 20.736 121.674 20.224C121.706 19.712 121.77 19.184 121.866 18.64C121.29 18.672 120.714 18.704 120.138 18.736C119.594 18.768 119.034 18.8 118.458 18.832V16.816C119.866 16.816 120.922 16.752 121.626 16.624C122.362 16.496 122.906 16.336 123.258 16.144C123.61 15.952 123.898 15.744 124.122 15.52H125.514C125.578 15.872 125.61 16.288 125.61 16.768C125.642 17.216 125.674 17.776 125.706 18.448C126.73 17.52 127.946 16.752 129.354 16.144C130.762 15.536 132.154 15.232 133.53 15.232C136.314 15.232 138.346 16.112 139.626 17.872C140.906 19.6 141.546 22.304 141.546 25.984V34.912C141.546 35.552 141.53 36.128 141.498 36.64C141.498 37.12 141.45 37.632 141.354 38.176C141.866 38.144 142.362 38.128 142.842 38.128C143.354 38.096 143.866 38.064 144.378 38.032V40H134.586V38.56C135.578 38.56 136.266 38.32 136.65 37.84C137.034 37.328 137.258 36.64 137.322 35.776C137.386 34.88 137.418 33.856 137.418 32.704V25.984C137.386 23.232 136.922 21.152 136.026 19.744C135.162 18.336 133.786 17.648 131.898 17.68C130.746 17.712 129.61 18.016 128.49 18.592C127.402 19.168 126.49 19.904 125.754 20.8C125.786 21.056 125.802 21.344 125.802 21.664C125.802 21.984 125.802 22.32 125.802 22.672L125.754 34.912C125.754 35.552 125.738 36.128 125.706 36.64C125.706 37.12 125.658 37.632 125.562 38.176C126.074 38.144 126.57 38.128 127.05 38.128C127.562 38.096 128.074 38.064 128.586 38.032V40H118.794ZM157.79 40.768C156.19 40.768 154.766 40.544 153.518 40.096C152.27 39.68 151.246 39.2 150.446 38.656L150.638 40.336H148.622L148.334 32.08H149.822C149.886 33.392 150.254 34.576 150.926 35.632C151.598 36.656 152.462 37.456 153.518 38.032C154.574 38.608 155.71 38.896 156.926 38.896C157.758 38.896 158.574 38.768 159.374 38.512C160.174 38.224 160.846 37.808 161.39 37.264C161.934 36.688 162.206 35.968 162.206 35.104C162.206 34.208 161.934 33.472 161.39 32.896C160.878 32.288 160.19 31.76 159.326 31.312C158.462 30.864 157.534 30.448 156.542 30.064C155.262 29.552 153.982 29.008 152.702 28.432C151.454 27.824 150.414 27.04 149.582 26.08C148.75 25.088 148.334 23.792 148.334 22.192C148.334 21.52 148.462 20.784 148.718 19.984C148.974 19.184 149.406 18.432 150.014 17.728C150.622 16.992 151.454 16.4 152.51 15.952C153.566 15.472 154.91 15.232 156.542 15.232C157.406 15.232 158.366 15.376 159.422 15.664C160.478 15.952 161.502 16.496 162.494 17.296L162.398 15.472H164.414V23.872H162.878C162.814 22.752 162.558 21.68 162.11 20.656C161.662 19.6 161.006 18.736 160.142 18.064C159.278 17.36 158.158 17.008 156.782 17.008C155.31 17.008 154.158 17.376 153.326 18.112C152.494 18.848 152.078 19.696 152.078 20.656C152.078 21.648 152.382 22.48 152.99 23.152C153.63 23.792 154.446 24.352 155.438 24.832C156.43 25.312 157.486 25.776 158.606 26.224C159.822 26.736 161.006 27.296 162.158 27.904C163.31 28.512 164.254 29.28 164.99 30.208C165.726 31.104 166.094 32.272 166.094 33.712C166.094 35.312 165.678 36.64 164.846 37.696C164.046 38.752 163.006 39.52 161.726 40C160.478 40.512 159.166 40.768 157.79 40.768Z" fill="#E5E5E5"/>
</svg>
